<svg width="34" height="34" viewBox="0 0 34 34" fill="none" xmlns="http://www.w3.org/2000/svg">
<path d="M4 10.125V22.875C4 23.4386 3.98314 23.9791 3.95314 24.3776C3.92313 24.7761 3.88243 25 3.84 25H2.16C2.11757 25 2.07687 24.7761 2.04686 24.3776C2.01686 23.9791 2 23.4386 2 22.875V10.125C2 9.56141 2.01686 9.02091 2.04686 8.6224C2.07687 8.22388 2.11757 8 2.16 8H3.84C3.88243 8 3.92313 8.22388 3.95314 8.6224C3.98314 9.02091 4 9.56141 4 10.125Z" fill="#69E199"/>
<path d="M26.5625 7.4375H4.25C3.40462 7.4375 2.59387 7.77333 1.9961 8.3711C1.39832 8.96887 1.0625 9.77962 1.0625 10.625V23.375C1.0625 24.2204 1.39832 25.0311 1.9961 25.6289C2.59387 26.2267 3.40462 26.5625 4.25 26.5625H26.5625C27.4079 26.5625 28.2186 26.2267 28.8164 25.6289C29.4142 25.0311 29.75 24.2204 29.75 23.375V10.625C29.75 9.77962 29.4142 8.96887 28.8164 8.3711C28.2186 7.77333 27.4079 7.4375 26.5625 7.4375ZM27.625 23.375C27.625 23.6568 27.5131 23.927 27.3138 24.1263C27.1145 24.3256 26.8443 24.4375 26.5625 24.4375H4.25C3.96821 24.4375 3.69796 24.3256 3.4987 24.1263C3.29944 23.927 3.1875 23.6568 3.1875 23.375V10.625C3.1875 10.3432 3.29944 10.073 3.4987 9.8737C3.69796 9.67444 3.96821 9.5625 4.25 9.5625H26.5625C26.8443 9.5625 27.1145 9.67444 27.3138 9.8737C27.5131 10.073 27.625 10.3432 27.625 10.625V23.375ZM34 12.75V21.25C34 21.5318 33.8881 21.802 33.6888 22.0013C33.4895 22.2006 33.2193 22.3125 32.9375 22.3125C32.6557 22.3125 32.3855 22.2006 32.1862 22.0013C31.9869 21.802 31.875 21.5318 31.875 21.25V12.75C31.875 12.4682 31.9869 12.198 32.1862 11.9987C32.3855 11.7994 32.6557 11.6875 32.9375 11.6875C33.2193 11.6875 33.4895 11.7994 33.6888 11.9987C33.8881 12.198 34 12.4682 34 12.75Z" fill="#475467"/>
</svg>
