<svg width="18" height="19" viewBox="0 0 18 19" fill="none" xmlns="http://www.w3.org/2000/svg">
<g clip-path="url(#clip0_1_3753)">
<g filter="url(#filter0_d_1_3753)">
<path fill-rule="evenodd" clip-rule="evenodd" d="M11.9325 2.15C11.79 2.0675 11.565 2 11.385 2H6.1125C5.91 2 5.7075 2.06 5.5425 2.18L5.505 2.195C5.49 2.21 5.4675 2.225 5.43 2.2475C5.37 2.2925 5.28 2.3525 5.19 2.42C5.025 2.5475 4.755 2.7575 4.5675 2.9675C4.26 3.305 3.9975 3.725 3.8175 4.04C3.6525 4.3475 3.495 4.655 3.36 5.0675C3.24 5.42 3.1125 5.855 3.075 6.41001C3.0375 6.92751 3.09 7.60999 3.2175 8.14999C3.3525 8.71249 3.6 9.20001 3.7875 9.53002C4.005 9.92 4.1775 10.13 4.4175 10.4C4.6575 10.67 4.9725 10.985 5.3025 11.2475C3.96 11.705 3 12.9725 3 14.4575C3 16.3325 4.515 17.75 6.3825 17.75H11.2275C13.095 17.75 14.61 16.3325 14.61 14.4575C14.61 12.9425 13.6125 11.66 12.24 11.225C12.465 11.06 12.675 10.865 12.87 10.655C13.4475 10.025 13.92 9.26002 14.205 8.44249C14.4525 7.75252 14.52 7.02499 14.4975 6.35752C14.475 5.7875 14.3475 5.2475 14.16 4.7525C13.9875 4.295 13.695 3.845 13.515 3.575C13.245 3.1625 12.8175 2.78 12.5775 2.5775C12.405 2.435 12.2175 2.315 12.0975 2.2475C12.03 2.21 11.97 2.1725 11.9325 2.15C11.9475 2.1575 11.91 2.1425 11.9325 2.15ZM6.89252 4.85C6.89252 5.195 7.16252 5.4725 7.49248 5.4725C7.8225 5.4725 8.0925 5.195 8.0925 4.85C8.0925 4.505 7.8225 4.2275 7.49248 4.2275C7.16252 4.2275 6.89252 4.505 6.89252 4.85ZM11.3475 7.41502C10.89 7.41502 10.5225 7.05502 10.5225 6.61251C10.5225 6.16999 10.89 5.81 11.3475 5.81C11.805 5.81 12.1725 6.16999 12.1725 6.61251C12.1725 7.05502 11.805 7.41502 11.3475 7.41502ZM9.285 8.77999C9.285 9.22251 9.65248 9.5825 10.11 9.5825C10.5675 9.5825 10.935 9.22251 10.935 8.77999C10.935 8.33752 10.5675 7.97752 10.11 7.97752C9.65248 7.97752 9.285 8.33752 9.285 8.77999ZM6.64502 8.77999C6.64502 9.22251 7.0125 9.5825 7.46998 9.5825C7.92752 9.5825 8.295 9.22251 8.295 8.77999C8.295 8.33752 7.92752 7.97752 7.46998 7.97752C7.01998 7.97752 6.64502 8.33752 6.64502 8.77999ZM7.96498 6.61251C7.96498 7.05502 8.33252 7.41502 8.79 7.41502C9.24748 7.41502 9.61502 7.05502 9.61502 6.61251C9.61502 6.16999 9.24748 5.81 8.79 5.81C8.33252 5.81 7.96498 6.16999 7.96498 6.61251ZM6.27 7.41502C5.81252 7.41502 5.445 7.05502 5.445 6.61251C5.445 6.16999 5.81252 5.81 6.27 5.81C6.72748 5.81 7.09502 6.16999 7.09502 6.61251C7.09502 7.05502 6.72748 7.41502 6.27 7.41502ZM10.0125 5.4725C9.68252 5.4725 9.41252 5.195 9.41252 4.85C9.41252 4.505 9.68252 4.2275 10.0125 4.2275C10.3425 4.2275 10.6125 4.505 10.6125 4.85C10.6125 5.1875 10.3425 5.4725 10.0125 5.4725ZM9.62998 14.4425C9.62998 15.17 10.2075 15.755 10.92 15.755C11.6325 15.755 12.21 15.17 12.21 14.4425C12.21 13.715 11.6325 13.13 10.92 13.13C10.2075 13.13 9.62998 13.715 9.62998 14.4425ZM6.6975 15.7175C5.98498 15.7175 5.4075 15.1325 5.4075 14.405C5.4075 13.6775 5.98498 13.0925 6.6975 13.0925C7.41002 13.0925 7.98748 13.6775 7.98748 14.405C7.98748 15.125 7.41002 15.7175 6.6975 15.7175Z" fill="#98A2B3"/>
</g>
</g>
<defs>
<filter id="filter0_d_1_3753" x="2.5" y="2" width="12.61" height="17.25" filterUnits="userSpaceOnUse" color-interpolation-filters="sRGB">
<feFlood flood-opacity="0" result="BackgroundImageFix"/>
<feColorMatrix in="SourceAlpha" type="matrix" values="0 0 0 0 0 0 0 0 0 0 0 0 0 0 0 0 0 0 127 0" result="hardAlpha"/>
<feOffset dy="1"/>
<feGaussianBlur stdDeviation="0.25"/>
<feComposite in2="hardAlpha" operator="out"/>
<feColorMatrix type="matrix" values="0 0 0 0 0 0 0 0 0 0 0 0 0 0 0 0 0 0 0.08 0"/>
<feBlend mode="normal" in2="BackgroundImageFix" result="effect1_dropShadow_1_3753"/>
<feBlend mode="normal" in="SourceGraphic" in2="effect1_dropShadow_1_3753" result="shape"/>
</filter>
<clipPath id="clip0_1_3753">
<rect width="18" height="18" fill="white" transform="translate(0 0.5)"/>
</clipPath>
</defs>
</svg>
